Coordinates
version=1
nRows=16
nColumns=40
inDegrees=yes

Units are S.I. units (second, meters, Newtons, ...)
Angles are in degrees.

endheader
time	pelvis_tilt	pelvis_list	pelvis_rotation	pelvis_tx	pelvis_ty	pelvis_tz	hip_flexion_r	hip_adduction_r	hip_rotation_r	knee_angle_r	knee_angle_r_beta	ankle_angle_r	subtalar_angle_r	mtp_angle_r	hip_flexion_l	hip_adduction_l	hip_rotation_l	knee_angle_l	knee_angle_l_beta	ankle_angle_l	subtalar_angle_l	mtp_angle_l	lumbar_extension	lumbar_bending	lumbar_rotation	arm_flex_r	arm_add_r	arm_rot_r	elbow_flex_r	pro_sup_r	wrist_flex_r	wrist_dev_r	arm_flex_l	arm_add_l	arm_rot_l	elbow_flex_l	pro_sup_l	wrist_flex_l	wrist_dev_l
      0.74000000	      0.79615845	     -1.05954329	      5.13157110	     -0.02230353	      0.86946776	      0.97557120	     30.42796587	     -3.12096339	    -24.54880044	    -15.99750850	     -0.27920920	     -2.35009288	      6.12856191	     -9.25159218	    -16.60176072	      0.68898134	      7.76040533	    -15.42227294	     -0.26916944	      9.04657364	    -12.14195434	     -9.40725658	     -5.92749452	      4.34816094	     -9.08599183	     -7.44193844	     -8.50095728	     16.78350392	     10.04702108	     89.95437384	      0.00000000	      0.00000000	     20.63411444	     12.92563497	    -16.42796105	     39.02597501	     89.95437384	      0.00000000	      0.00000000
      0.75000000	      0.98197589	     -1.21054642	      5.84729409	     -0.00664333	      0.86809423	      0.97496394	     30.59701434	     -3.37662905	    -24.24232934	    -17.53141049	     -0.30598084	     -2.14395446	      4.89056785	     -8.89944700	    -17.27049269	      1.33189227	      7.14023535	    -16.36253963	     -0.28558019	      8.11065702	    -12.44554760	     -9.33067167	     -5.91643368	      4.59790912	     -9.65233831	     -7.81152905	     -8.31652499	     16.35074064	      9.63750440	     89.95437384	      0.00000000	      0.00000000	     20.75091675	     12.92538411	    -15.94854696	     40.73659033	     89.95437384	      0.00000000	      0.00000000
      0.76000000	      1.11882899	     -1.66531642	      6.14275775	      0.00953529	      0.86676181	      0.97528231	     30.64039905	     -2.66723140	    -22.29622846	    -18.82393522	     -0.32853965	     -2.38699685	      1.03065545	     -7.50614449	    -17.77482333	      2.29831827	      7.37760879	    -17.50116964	     -0.30545303	      6.64086352	    -13.43681024	     -9.83162799	     -5.77522968	      5.13924211	     -9.76525915	     -8.14705891	     -8.11804070	     15.23624360	      9.13395473	     89.95437384	      0.00000000	      0.00000000	     20.66846478	     12.79570977	    -15.26443057	     42.38661788	     89.95437384	      0.00000000	      0.00000000
      0.77000000	      1.22699981	     -2.04107792	      6.36602502	      0.02614809	      0.86547762	      0.97570955	     30.71118670	     -2.04265483	    -20.56452025	    -20.61605065	     -0.35981796	     -1.77419716	     -1.37065423	     -1.57994455	    -18.20402673	      3.11703436	      7.44578110	    -18.71156969	     -0.32657850	      4.99365009	    -13.44829461	    -12.66424932	     -5.56272695	      5.55805422	     -9.83967530	     -8.51172201	     -8.02424495	     15.13506858	      8.74218964	     89.95437384	      0.00000000	      0.00000000	     20.39550991	     12.74352561	    -14.71949871	     44.12785436	     89.95437384	      0.00000000	      0.00000000
      0.78000000	      1.30127662	     -2.29320735	      6.56350114	      0.04305670	      0.86429732	      0.97581035	     30.67932000	     -1.68261985	    -19.38072595	    -22.40670697	     -0.39107081	     -1.82345678	     -1.62996873	     -1.53126834	    -18.54026359	      3.59788865	      6.74338177	    -20.12985158	     -0.35133219	      3.99583522	    -12.50065451	    -12.11991453	     -5.30161879	      5.87487406	     -9.69773688	     -9.16199170	     -8.07426938	     15.09349384	      8.88942090	     89.95437384	      0.00000000	      0.00000000	     20.20435412	     12.51348865	    -14.38310462	     45.53093631	     89.95437384	      0.00000000	      0.00000000
      0.79000000	      1.55847830	     -2.86299841	      6.67764732	      0.06075544	      0.86354187	      0.97686190	     30.25211744	     -0.52542959	    -18.09045476	    -23.69688845	     -0.41358873	     -3.12565127	     -6.25549670	     -0.29448290	    -18.83660673	      4.80605024	      7.78980943	    -21.89413643	     -0.38212477	      1.73965106	    -13.25785214	    -11.85887010	     -5.13217159	      6.46804635	     -9.94763447	     -9.19098961	     -7.92758467	     15.18338100	      8.13705976	     89.95437384	      0.00000000	      0.00000000	     19.19685400	     12.52815303	    -13.11672369	     47.81084072	     89.95437384	      0.00000000	      0.00000000
      0.80000000	      1.48612603	     -3.34546081	      6.67675204	      0.07801068	      0.86252198	      0.97785644	     30.34443383	      0.28702109	    -17.13720111	    -24.90350223	     -0.43464811	     -6.01743787	     -8.00428188	      1.54139667	    -18.43929551	      5.80251840	      8.42372527	    -24.19461901	     -0.42227576	     -0.71912202	    -13.43977562	    -11.71177772	     -4.66497003	      6.95183389	     -9.83431579	     -9.48821922	     -7.90702853	     15.21393086	      7.88457500	     89.95437384	      0.00000000	      0.00000000	     18.48147946	     12.48968439	    -12.65955890	     49.56389139	     89.95437384	      0.00000000	      0.00000000
      0.81000000	      1.45574672	     -3.53978337	      6.61836064	      0.09521836	      0.86198137	      0.97864013	     30.50391015	      0.53683941	    -16.32696279	    -26.64158454	     -0.46498337	     -6.85791996	     -7.34768904	      1.57248404	    -17.91411742	      6.27979319	      8.37466461	    -26.65823624	     -0.46527400	     -3.09388158	    -11.73191449	    -10.92602551	     -4.27965114	      7.15011596	     -9.65104414	     -9.76584724	     -7.91419078	     15.23432428	      7.79099229	     89.95437384	      0.00000000	      0.00000000	     17.79125210	     12.48666174	    -12.41083948	     51.09634403	     89.95437384	      0.00000000	      0.00000000
      0.82000000	      1.28765314	     -3.81107835	      6.57310247	      0.11241729	      0.86144920	      0.97955445	     30.89490766	      0.66673855	    -16.37518818	    -28.91611068	     -0.50468134	     -6.46763698	     -7.96688708	      1.54220585	    -16.85030604	      6.99210567	      8.77074619	    -29.54743704	     -0.51570006	     -6.46714840	    -10.31735682	    -10.11582873	     -3.71858645	      7.39174103	     -9.51221352	     -9.92938440	     -7.87703680	     15.27330588	      7.57439586	     89.95437384	      0.00000000	      0.00000000	     16.85661862	     12.32454473	    -11.75353707	     52.64148015	     89.95437384	      0.00000000	      0.00000000
      0.83000000	      0.49273620	     -4.40985754	      6.37817495	      0.12897914	      0.86017330	      0.98120510	     31.93068265	      1.59318101	    -15.55644333	    -30.97755312	     -0.54066030	     -5.80815362	    -10.69768740	      2.27509410	    -14.49998006	      8.33714105	      9.80936528	    -33.20271970	     -0.57949678	    -11.26773621	    -11.18227222	     -9.88678834	     -2.50139475	      7.87651831	     -9.34510165	    -10.03957994	     -7.88956033	     15.80118933	      7.41151415	     89.95437384	      0.00000000	      0.00000000	     15.75801431	     12.16318728	    -10.95358259	     54.11054764	     89.95437384	      0.00000000	      0.00000000
      0.84000000	      0.52812850	     -4.91183980	      6.17279389	      0.14577255	      0.86060909	      0.98258927	     31.64506060	      2.73773064	    -14.54253324	    -32.23095104	     -0.56253622	     -5.13441627	    -11.64227626	      2.90206307	    -13.19716098	      9.35432495	     10.05807776	    -36.15281789	     -0.63098571	    -16.59242523	     -9.31769959	     -9.06368867	     -2.28287477	      8.39292640	     -8.94758915	    -10.03481938	     -7.95820606	     15.81419840	      7.45821901	     89.95437384	      0.00000000	      0.00000000	     14.88212609	     12.00347527	    -10.57846500	     55.33430870	     89.95437384	      0.00000000	      0.00000000
      0.85000000	      0.77322214	     -5.48380086	      6.09904665	      0.16234683	      0.86150346	      0.98385846	     30.90976433	      3.98308282	    -13.56715665	    -33.32864774	     -0.58169464	     -3.22024515	    -12.38917384	      7.25449367	    -11.94923650	     10.31780701	      9.48464845	    -39.07993160	     -0.68207348	    -21.11785846	     -6.71065535	    -11.08392442	     -2.32244416	      9.00138781	     -8.58939580	    -10.03852711	     -8.12720024	     16.76518708	      7.75533456	     89.95437384	      0.00000000	      0.00000000	     14.09106338	     11.86362823	    -10.39337568	     56.38420618	     89.95437384	      0.00000000	      0.00000000
      0.86000000	      1.26841929	     -5.85591443	      6.11402579	      0.17857398	      0.86287029	      0.98474976	     29.72922353	      4.83264548	    -12.96314693	    -34.23491683	     -0.59751202	     -1.51006744	    -12.73907996	      6.96834105	    -10.76673253	     10.91981423	      8.32969680	    -42.16742257	     -0.73596036	    -25.17314317	     -5.00667214	    -10.36567911	     -2.69401694	      9.41773774	     -8.24957401	     -9.78869290	     -8.17131804	     16.87823698	      7.86346773	     89.95437384	      0.00000000	      0.00000000	     13.43101805	     11.75994513	    -10.42179987	     57.21256152	     89.95437384	      0.00000000	      0.00000000
      0.87000000	      1.47545337	     -6.53616272	      6.09820755	      0.19408613	      0.86390764	      0.98597442	     28.79712023	      6.03893248	    -12.44005361	    -34.83673018	     -0.60801564	     -0.23661283	    -13.20243244	      6.92829119	     -8.80928114	     11.90785389	      7.29389905	    -45.79640118	     -0.79929799	    -28.38941602	     -3.37120374	    -10.12490185	     -2.78307969	     10.11670138	     -7.90182691	     -9.54334257	     -8.33009166	     17.13233426	      8.25719988	     89.95437384	      0.00000000	      0.00000000	     12.76736834	     11.58953549	    -10.41252350	     57.82546183	     89.95437384	      0.00000000	      0.00000000
      0.88000000	      1.47212968	     -7.07865028	      6.03522959	      0.20884846	      0.86474907	      0.98694407	     28.01174128	      6.98384012	    -12.11139156	    -35.31869302	     -0.61642748	      1.35810948	    -13.40381400	     10.23672257	     -6.41497232	     12.60920702	      6.40640193	    -49.51540317	     -0.86420682	    -29.66113089	      0.51089100	    -15.96288602	     -2.73519867	     10.65426544	     -7.44731151	     -9.27430168	     -8.63757309	     18.25112102	      8.79755982	     89.95437384	      0.00000000	      0.00000000	     12.17707563	     11.35809866	    -10.49504345	     58.21517985	     89.95437384	      0.00000000	      0.00000000
      0.89000000	      1.75652646	     -7.55953251	      6.05329573	      0.22353065	      0.86628804	      0.98770764	     26.62679525	      7.71963419	    -12.31208026	    -35.33979636	     -0.61679580	      2.87742703	    -12.93220539	      9.75782014	     -4.33294306	     13.26631073	      5.74674603	    -53.01820500	     -0.92534224	    -28.27961966	      2.72143012	    -15.41672676	     -3.01868725	     11.15280748	     -6.97960690	     -8.82642771	     -8.80675558	     18.34071400	      9.16227830	     89.95437384	      0.00000000	      0.00000000	     11.71614694	     11.19544246	    -10.83416316	     58.34329316	     89.95437384	      0.00000000	      0.00000000
